<svg width="118" height="118" viewBox="0 0 118 118" fill="none" xmlns="http://www.w3.org/2000/svg">
<g filter="url(#filter0_d_4_273)">
<circle cx="59" cy="55" r="55" fill="white"/>
<circle cx="59" cy="55" r="54.75" stroke="#0D47A1" stroke-opacity="0.5" stroke-width="0.5"/>
</g>
<g clip-path="url(#clip0_4_273)">
<path fill-rule="evenodd" clip-rule="evenodd" d="M48.1925 87.054C43.7595 86.856 39.3815 85.9485 35.0365 84.9805C32.4808 84.1482 31.148 83.721 31.038 83.699C30.158 83.325 29.2835 82.951 28.4035 82.5825C26.4858 81.5632 25.5013 81.0499 25.45 81.0425C25.439 81.0095 25.4335 80.993 25.4335 80.971C25.417 80.982 25.395 80.993 25.384 81.004C25.241 80.8885 25.2135 80.8995 25.197 80.839C23.1125 79.5905 21.149 78.1825 19.3285 76.4995C17.695 74.7615 17.618 74.7285 17.5905 74.657C17.563 74.646 17.541 74.635 17.5245 74.624V74.5635C17.4475 74.5305 17.431 74.459 17.354 74.426C17.3045 74.3435 17.2385 74.3105 16.0065 72.6275C15.3722 71.5568 14.8222 70.5925 14.3565 69.7345C13.8542 68.4658 13.5205 67.5877 13.3555 67.1C13.0365 65.725 12.734 64.328 12.47 62.9365C12.3655 60.9455 12.338 59.0205 12.6405 57.0515C12.8935 57.959 13.152 58.861 13.416 59.7795C14.219 62.018 15.2585 63.745 16.551 65.67H16.617C16.9305 66.1925 17.53 66.627 17.75 67.1715H17.816C17.816 67.276 17.9865 67.3805 18.0305 67.485C18.047 67.485 18.08 67.496 18.1075 67.507C19.5485 69.1185 21.204 70.4935 22.854 71.8465C24.3335 72.8695 25.835 73.843 27.375 74.7505C28.442 75.3115 29.509 75.8725 30.5815 76.45C33.018 77.44 35.46 78.397 37.9405 79.2275C40.0745 79.8545 42.225 80.4265 44.3865 80.894C46.5682 81.2607 48.3208 81.5375 49.6445 81.7245C51.003 81.862 52.3615 81.994 53.731 82.1425C55.1665 82.203 56.602 82.28 58.043 82.3515C62.8555 82.401 67.6515 81.9775 72.4145 81.2075C74.8015 80.729 77.172 80.146 79.5315 79.541C81.55 78.8755 83.607 78.221 85.609 77.4675C85.994 77.22 86.3845 76.967 86.7695 76.7195C86.7585 76.802 86.7585 76.8955 86.7585 76.989C86.6815 77.011 85.8785 77.396 85.807 77.374C85.4495 77.77 84.542 78.177 84.135 78.4025C82.6445 79.519 80.7965 80.212 79.152 80.993C76.699 81.972 74.235 82.929 71.7545 83.8035C69.5288 84.4415 68.3995 84.7789 68.3665 84.8155C68.262 84.8045 67.7615 84.953 63.895 85.7835C61.376 86.1905 58.846 86.5645 56.316 86.823C53.61 86.8945 50.8985 86.9715 48.198 87.054H48.1925Z" fill="#EF8702"/>
<path fill-rule="evenodd" clip-rule="evenodd" d="M54.292 78.2046C53.478 78.0891 52.6695 78.1331 51.8555 78.1441C51.839 78.1221 51.817 78.1111 51.8005 78.1001C51.7895 78.1111 51.784 78.1331 51.784 78.1496C51.597 78.1202 50.9498 78.0781 49.8425 78.0231C51.0965 73.2216 52.4 68.4366 53.7475 63.6736C53.786 63.4536 53.863 63.1951 53.83 62.9751C50.596 66.3356 47.9725 70.4221 44.931 73.9916C44.8155 74.2501 44.6835 74.4481 44.403 74.4921C43.006 71.0986 41.609 67.6831 40.6355 64.1136C40.597 64.1246 40.5585 64.1356 40.531 64.1466C40.3055 64.8561 40.0855 65.5711 39.871 66.2916C39.607 67.3036 39.332 68.3321 39.1175 69.3551C38.9745 70.4386 38.837 71.5221 38.6995 72.6166C38.661 73.9586 38.606 75.3006 38.6225 76.6481C36.3565 76.1696 34.1015 75.5976 31.9125 74.8166C30.279 73.4031 28.959 71.4946 28.376 69.2891C29.652 69.4046 30.6805 70.5046 31.885 70.7686C31.962 70.1251 32.0445 69.4761 32.1325 68.8326C32.501 66.5116 33.3205 64.4711 34.206 62.3371C34.217 62.2436 34.2225 62.1611 34.2445 62.0786C34.03 62.1391 33.8265 62.2876 33.667 62.4636C33.128 62.6726 32.534 63.1731 32.083 63.5471C31.2415 63.8496 30.6035 64.7846 29.817 65.2136C29.234 65.8296 28.5135 66.4016 27.837 66.8691C27.837 65.8791 27.9415 64.8891 28.035 63.8991C28.2605 63.0961 28.497 62.2931 28.7335 61.4956C28.7885 61.4241 28.849 61.3471 28.904 61.2866C30.015 60.4946 31.1315 59.7026 32.2425 58.9216C33.1885 58.3276 34.129 57.7336 35.075 57.1506C37.3465 55.9846 39.6785 54.9011 41.994 53.8176C43.4735 53.2016 44.964 52.5911 46.46 51.9861C46.4765 51.9971 46.5095 52.0081 46.537 52.0301C46.5003 53.3134 46.482 54.4244 46.482 55.3631C46.5975 57.7556 47.087 60.0271 47.626 62.3371C51.6355 57.7226 55.656 53.0806 59.693 48.4881C59.902 48.4166 60.1055 48.3396 60.3255 48.2681C64.8172 47.5311 67.8935 47.0416 69.5545 46.7996C69.5435 46.8821 69.538 46.9646 69.538 47.0581C69.274 47.7786 68.999 48.4936 68.7845 49.2361L68.669 49.4231C66.491 49.7971 66.425 49.8411 64.9895 50.1106C64.962 50.1436 64.9345 50.1711 64.9125 50.2041C62.091 58.2836 59.8195 66.6766 57.4215 74.9211C57.438 74.9651 57.46 75.0146 57.4765 75.0696C58.5545 75.0586 59.627 75.0476 60.7105 75.0476C60.6995 75.2786 60.4465 76.3621 60.3145 76.4556C60.3145 76.7801 60.012 77.8636 59.814 78.0781C58.7195 78.1001 57.625 78.1221 56.5305 78.1496C55.8155 78.2321 55.04 78.1056 54.292 78.2101V78.2046Z" fill="#005CA9"/>
<path fill-rule="evenodd" clip-rule="evenodd" d="M84.861 77.9577C84.861 77.9577 84.8787 77.9342 84.861 77.9577V77.9577Z" fill="#005CA9"/>
<path fill-rule="evenodd" clip-rule="evenodd" d="M85.0535 77.8532C85.0535 77.8532 85.0712 77.8297 85.0535 77.8532V77.8532Z" fill="#005CA9"/>
<path fill-rule="evenodd" clip-rule="evenodd" d="M59.9515 77.6443C59.9515 77.6443 59.9692 77.6207 59.9515 77.6443V77.6443Z" fill="#005CA9"/>
<path fill-rule="evenodd" clip-rule="evenodd" d="M85.466 77.5829C85.4733 77.5609 85.4733 77.5609 85.466 77.5829V77.5829Z" fill="#005CA9"/>
<path fill-rule="evenodd" clip-rule="evenodd" d="M85.6585 77.4784C85.6658 77.4564 85.6658 77.4564 85.6585 77.4784V77.4784Z" fill="#005CA9"/>
<path fill-rule="evenodd" clip-rule="evenodd" d="M60.4245 76.0493C60.4245 76.0493 60.4422 76.0257 60.4245 76.0493V76.0493Z" fill="#005CA9"/>
<path fill-rule="evenodd" clip-rule="evenodd" d="M20.3185 68.5576C20.3185 68.0681 20.6595 67.6721 20.896 67.2761C21.4075 65.7141 21.908 63.9651 22.414 62.3316C22.8283 60.7219 23.0355 59.8896 23.0355 59.8346C22.535 59.2846 21.281 59.5871 20.665 59.7191C20.2965 59.8566 19.939 59.9886 19.5815 60.1371C19.2845 60.3241 18.9912 60.4873 18.7015 60.6266C18.4485 60.8136 18.19 61.0446 17.8985 61.1656C17.8985 60.7311 19.2295 59.6036 19.444 59.3946C19.7245 59.1526 20.0105 58.9271 20.291 58.6961C20.764 58.4046 21.2425 58.1241 21.7265 57.8436C22.436 57.5631 23.151 57.2826 23.866 57.0131C24.2455 56.7106 24.394 56.0231 24.5755 55.5556C26.462 51.7441 28.706 48.0921 31.115 44.6656C32.0133 43.6609 32.6422 42.9771 33.0015 42.6141C35.372 40.4086 38.1055 38.5936 40.784 36.8886C41.587 36.1901 41.7465 35.6896 41.774 34.5896C41.6035 33.9351 41.257 33.1926 40.8005 32.7251C40.3495 31.9221 39.3485 31.2346 38.6775 30.6406C38.639 30.6296 38.6115 30.6296 38.584 30.6296C38.584 30.5856 38.595 30.5471 38.6005 30.5031C39.4695 30.1896 40.6575 30.3656 41.5705 30.4316C43.8365 30.7836 45.8055 31.8891 47.8735 32.9286C48.638 33.1156 49.3915 33.2916 50.178 33.3136C55.0675 33.1266 60.056 33.6271 64.577 35.8106C65.248 36.2066 65.919 36.6136 66.5955 37.0206C67.426 37.6531 68.207 38.3516 68.966 39.1051C69.373 39.6386 70.2695 40.5021 70.352 41.1896C70.2365 41.1896 69.934 40.9091 69.901 40.8046C69.824 40.7716 69.7965 40.7111 68.185 39.5011C67.8825 39.2921 67.58 39.0831 67.2775 38.8851C66.6175 38.5221 65.9685 38.1536 65.314 37.7906C63.5485 37.0536 61.7445 36.5091 59.924 35.9811C57.251 35.5026 56.855 35.4696 56.4975 35.3981C54.391 35.2331 52.1085 34.8646 50.0405 35.5026C49.804 35.6676 49.5675 35.8381 49.342 36.0031C49.1935 36.6356 49.2375 36.7401 49.5015 37.3561C49.595 37.5101 49.815 37.7631 49.815 37.9611C47.109 38.0986 44.6065 38.7091 42.0215 39.5726C40.729 40.0841 39.4915 40.7056 38.254 41.3656C36.6315 42.4876 34.723 43.5931 33.392 45.1441C33.3095 45.1936 33.2325 45.2596 33.1555 45.3201C32.325 46.2551 32.138 46.4146 30.796 47.9656C29.938 49.1316 29.058 50.2976 28.321 51.5681C28.2 51.8376 28.0735 52.0081 27.3475 53.3611C27.32 53.4766 27.2265 53.5921 26.2255 55.8086C26.055 56.2871 25.8845 56.7656 25.714 57.2441C25.23 59.1728 24.9917 60.1554 24.999 60.1921C24.482 61.7321 23.888 63.2336 23.195 64.6911C22.3755 66.0661 21.479 67.3861 20.3845 68.5136C20.346 68.5246 20.3185 68.5466 20.291 68.5631L20.3185 68.5576Z" fill="#005CA9"/>
<path fill-rule="evenodd" clip-rule="evenodd" d="M76.061 64.9824V65.0429C75.9455 65.0869 75.533 65.4059 75.4945 65.5654C75.3735 65.5654 75.401 65.6259 75.3075 65.6699V65.7414C75.1205 65.8569 75.0435 65.8899 74.8235 65.8899C74.444 65.2739 74.0755 64.6634 73.7125 64.0474C73.7015 64.0034 73.7015 63.9759 73.7015 63.9429H73.6355C73.5805 63.8054 73.531 63.6844 73.487 63.5579H73.421C73.366 63.4039 73.355 63.2774 73.355 63.1124C73.3935 63.0904 73.4375 63.0794 73.487 63.0684C73.5255 62.9309 74.0535 62.4744 74.147 62.4414V62.3809C74.466 62.0949 74.6548 61.9428 74.7135 61.9244V61.8639C74.763 61.8199 75.0435 61.6549 75.0435 61.5724C75.4945 61.1764 75.94 60.1369 75.94 59.4989C75.324 59.5209 74.6585 59.4769 74.07 59.7189C73.9545 60.0819 73.8555 60.4174 73.6575 60.7419C73.5365 60.8574 72.4805 61.7704 72.4805 61.8969H72.4145C71.8058 60.7529 71.2577 59.7629 70.77 58.9269C70.583 58.4594 70.4785 58.2174 70.8525 57.8654C72.0405 57.4309 73.399 57.4584 74.6475 57.5024C74.9005 57.6399 75.225 57.8654 75.3075 57.8764C75.3258 57.8544 75.4413 57.0423 75.654 55.4399C72.948 55.6489 70.2365 55.8579 67.536 56.0724C66.7165 56.2704 66.194 56.4354 65.5175 56.9799C65.347 57.1559 65.1765 57.3429 65.006 57.5299C64.4285 58.9984 64.885 59.4879 65.688 60.7474C65.7265 60.8519 65.765 60.9564 65.8035 61.0609C65.3195 61.1324 64.841 61.2094 64.3625 61.2809C63.7795 61.6054 63.2515 61.9794 62.751 62.4359C62.003 63.7174 61.574 65.1749 61.299 66.6544C61.354 67.6444 61.717 67.9469 62.542 68.1724C64.2855 68.1284 66.0455 68.0074 67.7615 67.7049C68.0145 67.5564 68.273 67.4134 68.526 67.2704C68.6855 67.1439 68.9495 66.8524 69.1475 66.8524C69.164 66.8964 69.186 66.9459 69.2025 67.0009H69.2685C69.549 67.6334 70.3135 67.5619 70.88 67.5729C72.266 67.4684 73.652 67.3749 75.049 67.2814C75.06 67.2484 75.0655 67.2319 75.0765 67.2099H75.1535C75.5495 66.5224 75.8685 65.7414 76.1545 64.9934H76.061V64.9824ZM66.2215 65.9504C65.996 65.9064 65.919 65.8239 65.853 65.6094C66.1335 64.6084 66.4305 63.6129 66.722 62.6229C66.854 62.6229 67.701 64.3719 67.8165 64.5809C68.0255 64.8834 68.2895 65.1034 68.2895 65.4884C67.866 65.9559 66.7715 65.9284 66.2215 65.9559V65.9504Z" fill="#005CA9"/>
<path fill-rule="evenodd" clip-rule="evenodd" d="M99.1775 66.0659C98.3855 66.4949 97.5935 66.9294 96.807 67.3694C96.3487 67.5711 96.0938 67.6683 96.0425 67.6609C96.213 67.0889 96.191 66.4619 96.323 65.8789C96.939 61.0169 97.049 56.0394 95.9545 51.271C95.6135 50.072 95.2395 48.6474 94.53 47.6464C92.7535 47.1569 90.8615 46.937 89.0465 46.6675C85.752 46.2935 82.441 46.2 79.1355 46.2C78.9338 46.8856 78.7542 47.5584 78.5965 48.2184C79.6745 48.1689 80.747 48.1249 81.825 48.0809C81.8085 48.2349 81.7975 48.3944 81.7865 48.5484C80.6095 53.2454 79.35 57.9369 78.0795 62.6064C76.8695 66.3959 75.6925 70.2074 74.3065 73.9144C73.5915 74.5084 72.1835 74.1234 71.2595 74.4259C70.968 75.2675 70.6765 76.1144 70.3905 76.9559C70.638 76.9339 70.88 76.9119 71.1385 76.9064C74.433 76.4059 77.6945 75.6689 80.934 74.8879C81.187 74.7944 81.4455 74.7009 81.6985 74.6184C82.672 72.3194 83.464 69.9104 84.2175 67.5179C84.267 67.4134 84.311 67.3199 84.3605 67.2264C86.137 66.8084 88.0125 66.1539 89.6735 65.3399C89.7285 65.4939 89.723 65.6644 89.723 65.8404C89.5525 66.7479 89.382 67.6609 89.2225 68.5794C88.931 69.8609 88.4855 71.0984 88.0785 72.3359C88.0235 72.4074 87.974 72.49 87.93 72.5779C87.941 72.5999 87.9465 72.6274 87.9685 72.6604C88.018 72.6604 88.062 72.6604 88.1115 72.6714C89.4865 72.1214 90.878 71.5769 92.264 71.0379C92.484 70.9206 92.7297 70.7684 93.001 70.5814C94.4145 69.9379 95.8335 69.2889 97.247 68.6454C97.8025 68.2934 98.369 67.9469 98.9355 67.6059C99.0785 67.3969 99.3205 66.3244 99.183 66.0769L99.1775 66.0659ZM89.998 61.5449C88.656 61.7539 87.2975 61.8859 85.939 61.9189C85.939 61.8474 85.939 61.7704 85.95 61.7099C85.994 61.6183 86.1828 60.9839 86.5165 59.8069C87.1655 57.2769 87.8475 54.7249 88.48 52.1839C88.733 53.1189 88.9915 54.0704 89.2555 55.0164C89.4242 55.9661 89.591 57.0074 89.756 58.1404C89.8385 59.2239 90.0695 60.4504 90.0035 61.5449H89.998Z" fill="#005CA9"/>
<path fill-rule="evenodd" clip-rule="evenodd" d="M18.707 60.1921C18.707 60.1921 18.7235 60.1481 18.7455 60.1316C18.729 60.1536 18.718 60.1756 18.707 60.1921Z" fill="#005CA9"/>
<path fill-rule="evenodd" clip-rule="evenodd" d="M25.791 58.6629C25.78 58.6134 25.78 58.5584 25.78 58.5089C27.7215 56.1164 29.5915 53.6469 31.6375 51.3534C32.996 49.6484 34.6405 48.2074 36.175 46.6894C36.2685 46.6069 36.7525 46.0844 36.8625 46.1504C36.89 46.1009 36.9285 46.0459 36.967 46.0019C36.9835 46.0019 37.0055 46.0019 37.033 46.0129C37.0513 45.9432 37.077 45.8937 37.11 45.8644C37.11 45.8644 37.1485 45.8864 37.176 45.8974C37.2255 45.8479 37.2145 45.7434 37.319 45.7709C37.913 45.2594 38.507 44.7479 39.112 44.2419C40.256 43.4279 41.4165 42.6084 42.5825 41.8384C42.676 41.8164 42.764 41.8054 42.8465 41.8494V41.9099C42.0985 42.7129 41.543 43.6094 40.971 44.5554C40.96 44.6709 40.96 44.7864 40.96 44.9074C41.026 44.9074 41.092 44.9184 41.158 44.9294C42.874 44.2529 44.5295 43.3674 46.251 42.7129C47.252 42.4324 48.2585 42.1519 49.2705 41.8824C51.168 41.5579 53.1755 41.3434 55.007 40.6944C55.1775 40.5294 55.348 40.3589 55.524 40.1939C55.667 39.2974 55.2105 39.1324 54.6275 38.6924C54.2975 38.6099 53.478 38.1534 53.7585 37.6804C53.9455 37.6199 54.138 37.5539 54.336 37.5044C58.5325 37.7024 62.773 39.2974 66.634 41.0134C67.8715 41.6569 69.1145 42.3334 70.3245 43.0209C71.0065 43.5214 71.683 44.0329 72.365 44.5389C72.4145 44.5279 72.4695 44.5279 72.5245 44.5279C72.233 43.7029 71.551 43.0924 71.155 42.3334C72.211 42.8229 73.9655 44.7204 73.4595 46.1449C73.366 46.1944 73.278 46.2604 73.1955 46.3209C72.552 46.3814 71.364 45.5179 70.847 45.2704C70.121 44.9789 69.0925 44.3739 68.273 44.2804C68.1025 44.1539 67.877 44.1264 67.679 44.0329C65.4405 43.4389 63.1305 42.7184 60.8205 43.2299C60.6335 43.3564 60.2705 43.4994 60.045 43.5434C59.528 43.9724 59.0055 44.4069 58.4885 44.8469C57.449 45.8754 56.415 46.9314 55.4305 48.0204C54.919 48.3834 54.413 48.7519 53.9015 49.1259C52.675 49.8739 50.8545 51.0014 49.4025 50.4679V50.3854C50.3412 49.4907 51.036 48.8069 51.487 48.3339C52.3065 47.3989 53.5825 46.0239 53.8355 44.6984C53.819 44.4564 53.808 44.2199 53.797 43.9779C49.87 43.9779 45.9155 45.8094 42.324 47.3329C40.9637 48.0699 38.8242 49.2707 35.9055 50.9354C34.096 52.1949 32.2535 53.4654 30.477 54.7854C28.299 56.6114 26.7352 57.9021 25.7855 58.6574L25.791 58.6629Z" fill="#005CA9"/>
<path fill-rule="evenodd" clip-rule="evenodd" d="M96.6585 56.6829V56.6499H96.697V56.6829H96.6585Z" fill="#005CA9"/>
<path fill-rule="evenodd" clip-rule="evenodd" d="M105.03 53.9495C104.991 53.856 104.953 53.7625 104.914 53.669C104.887 52.3545 104.744 51.0675 104.254 49.8685C104.084 49.335 103.913 48.807 103.743 48.2845C103.409 47.5402 103.05 46.794 102.665 46.046C101.636 44.33 100.531 42.8175 99.249 41.338C99.128 41.2555 98.985 41.0905 96.18 38.5165C92.7645 35.9425 92.7095 35.9425 92.2805 35.6345C91.1695 34.98 90.053 34.331 88.942 33.6875C88.5277 33.5152 87.5432 33.044 85.9885 32.274C85.0828 31.9 83.4072 31.251 80.9615 30.327C77.227 29.2985 73.5145 28.2425 69.692 27.654C68.5315 27.5055 67.382 27.3735 66.227 27.236C62.6685 26.9665 59.1595 26.862 55.59 26.862C55.0913 26.9097 53.8905 26.9904 51.9875 27.104C48.055 27.456 44.1665 28.105 40.3165 29.051C39.1285 29.392 37.946 29.7385 36.769 30.0905C36.648 30.1015 36.5325 30.14 36.428 30.0685C41.147 27.7475 46.0035 26.1305 51.0085 24.8105C52.3835 24.53 53.775 24.2495 55.161 23.98C56.437 23.793 57.8212 23.6097 59.3135 23.43C63.8235 23.012 68.3555 22.7755 72.871 23.1165C73.619 23.188 74.3615 23.2705 75.1095 23.3585C79.185 23.9415 83.1505 24.8985 87.0665 26.2735C88.106 26.73 89.151 27.192 90.2015 27.6595C91.813 28.5835 93.419 29.557 95.003 30.5415C96.147 31.438 97.2855 32.34 98.4295 33.2475C99.2875 34.2155 100.146 35.1835 100.976 36.1735C101.059 36.465 101.46 36.817 101.647 37.048C102.714 38.7365 102.714 38.786 102.995 39.237C103.655 40.5295 104.205 41.8605 104.705 43.2355C104.98 44.3795 105.255 45.5345 105.453 46.7005C105.446 46.8655 105.495 47.4522 105.602 48.4605C105.536 50.303 105.519 52.1895 105.024 53.955L105.03 53.9495Z" fill="#EF8702"/>
<path fill-rule="evenodd" clip-rule="evenodd" d="M36.6425 46.3486C36.6425 46.3486 36.681 46.3046 36.6975 46.2991C36.681 46.3101 36.659 46.3321 36.6425 46.3486Z" fill="#005CA9"/>
<path fill-rule="evenodd" clip-rule="evenodd" d="M36.7745 46.2441C36.7745 46.2441 36.802 46.2001 36.824 46.1946C36.8075 46.2056 36.7855 46.2276 36.7745 46.2441Z" fill="#005CA9"/>
<path fill-rule="evenodd" clip-rule="evenodd" d="M36.945 46.0954C36.945 46.0954 36.9615 46.0514 36.9835 46.0459C36.967 46.0569 36.956 46.0789 36.945 46.0954Z" fill="#005CA9"/>
<path fill-rule="evenodd" clip-rule="evenodd" d="M72.3045 46.0351C72.2972 46.0131 72.2972 46.0131 72.3045 46.0351V46.0351Z" fill="#005CA9"/>
<path fill-rule="evenodd" clip-rule="evenodd" d="M37.396 45.6499V45.6169H37.4345V45.6499H37.396Z" fill="#005CA9"/>
</g>
<defs>
<filter id="filter0_d_4_273" x="0" y="0" width="118" height="118" filterUnits="userSpaceOnUse" color-interpolation-filters="sRGB">
<feFlood flood-opacity="0" result="BackgroundImageFix"/>
<feColorMatrix in="SourceAlpha" type="matrix" values="0 0 0 0 0 0 0 0 0 0 0 0 0 0 0 0 0 0 127 0" result="hardAlpha"/>
<feOffset dy="4"/>
<feGaussianBlur stdDeviation="2"/>
<feComposite in2="hardAlpha" operator="out"/>
<feColorMatrix type="matrix" values="0 0 0 0 0 0 0 0 0 0 0 0 0 0 0 0 0 0 0.1 0"/>
<feBlend mode="normal" in2="BackgroundImageFix" result="effect1_dropShadow_4_273"/>
<feBlend mode="normal" in="SourceGraphic" in2="effect1_dropShadow_4_273" result="shape"/>
</filter>
<clipPath id="clip0_4_273">
<rect width="110" height="110" fill="white" transform="translate(4)"/>
</clipPath>
</defs>
</svg>
